<svg width="114" height="32" viewBox="0 0 114 32" fill="none" xmlns="http://www.w3.org/2000/svg">
<path d="M12.7444 17C13.2967 17 13.7444 16.5523 13.7444 16C13.7444 15.4477 13.2967 15 12.7444 15C12.1921 15 11.7444 15.4477 11.7444 16C11.7444 16.5523 12.1921 17 12.7444 17Z" fill="#0EA5E9"/>
<path d="M12.8689 3.3693L13.6539 12.0041C13.7025 12.5388 13.2814 12.9999 12.7444 12.9999C12.2074 12.9999 11.7864 12.5388 11.835 12.0041L12.6199 3.3693C12.6338 3.21772 12.8551 3.21772 12.8689 3.3693Z" fill="#0EA5E9"/>
<path d="M12.8689 28.6306L13.6539 19.9959C13.7025 19.4611 13.2814 19 12.7444 19C12.2074 19 11.7864 19.4611 11.835 19.9959L12.6199 28.6306C12.6338 28.7822 12.8551 28.7822 12.8689 28.6306Z" fill="#0EA5E9"/>
<path d="M0.113686 16.1246L8.74845 16.9095C9.2832 16.9581 9.74433 16.5371 9.74433 16.0001C9.74433 15.4631 9.2832 15.042 8.74845 15.0906L0.113686 15.8756C-0.0378953 15.8894 -0.0378953 16.1107 0.113686 16.1246Z" fill="#0EA5E9"/>
<path d="M17.6519 22.318C18.088 21.9792 18.7179 21.9734 19.1084 22.3639C19.4989 22.7545 19.5018 23.3921 19.0742 23.7417C17.8098 24.7755 16.3071 25.4873 14.6954 25.8079C14.5044 25.8458 14.3128 25.8781 14.1208 25.9048L14.308 23.8456C15.5305 23.602 16.6745 23.0771 17.6519 22.318ZM4.89882 17.5636C5.10294 18.5879 5.50676 19.5676 6.09269 20.4446C6.97176 21.7602 8.22119 22.7856 9.68301 23.3911C10.1686 23.5922 10.6703 23.7439 11.1808 23.8456L11.3681 25.9047C10.5307 25.7883 9.70701 25.5658 8.91763 25.2388C7.09038 24.4819 5.52857 23.2002 4.42976 21.5558C3.58776 20.2956 3.04657 18.8658 2.8396 17.3763L4.89882 17.5636ZM11.1808 8.15431C10.6703 8.25606 10.1686 8.40781 9.68301 8.60894C8.22119 9.21444 6.97176 10.2398 6.09269 11.5554C5.50676 12.4324 5.10294 13.412 4.89882 14.4364L2.8396 14.6236C3.04657 13.1342 3.58776 11.7044 4.42976 10.4443C5.52857 8.79981 7.09038 7.51813 8.91763 6.76125C9.70701 6.43425 10.5307 6.21164 11.3681 6.09528L11.1808 8.15431ZM14.1208 6.09521C14.3128 6.1219 14.5044 6.15417 14.6954 6.19214C16.3071 6.51275 17.8098 7.2245 19.0742 8.25831C19.5018 8.60788 19.4989 9.2455 19.1084 9.63607C18.7179 10.0266 18.088 10.0208 17.6519 9.682C16.6745 8.92288 15.5305 8.39794 14.308 8.15431L14.1208 6.09521Z" fill="#0EA5E9"/>
<path d="M25.375 16.1246L16.7403 16.9095C16.2055 16.9581 15.7444 16.5371 15.7444 16.0001C15.7444 15.4631 16.2055 15.042 16.7403 15.0906L25.375 15.8756C25.5266 15.8894 25.5266 16.1107 25.375 16.1246Z" fill="#0EA5E9"/>
<path d="M34.3264 8.03125H40.678C41.9592 8.03125 43.0491 8.25391 43.9475 8.69922C44.8459 9.14453 45.5217 9.77734 45.9749 10.5977C46.4358 11.418 46.6663 12.3711 46.6663 13.457C46.6663 14.543 46.4358 15.4844 45.9749 16.2812C45.5139 17.0781 44.8303 17.6953 43.9241 18.1328C43.0178 18.5703 41.9202 18.7891 40.6311 18.7891H36.0842V16.2344H40.2209C40.9944 16.2344 41.6233 16.1289 42.1077 15.918C42.592 15.6992 42.9514 15.3867 43.1858 14.9805C43.428 14.5742 43.5491 14.0664 43.5491 13.457C43.5491 12.8398 43.428 12.3203 43.1858 11.8984C42.9514 11.4688 42.5881 11.1445 42.0959 10.9258C41.6038 10.6992 40.9749 10.5859 40.2092 10.5859H37.3733V25H34.3264V8.03125ZM47.2756 25H43.8538L39.7405 17.3242H43.0803L47.2756 25ZM49.303 8.03125H60.3303V10.5977H52.3499V15.2383H59.7561V17.7812H52.3499V22.4336H60.3772V25H49.303V8.03125ZM74.6741 13.75C74.5647 13.0859 74.3186 12.5117 73.9358 12.0273C73.5608 11.543 73.0842 11.1758 72.5061 10.9258C71.9358 10.668 71.3069 10.5391 70.6194 10.5391C69.6897 10.5391 68.8655 10.7734 68.1467 11.2422C67.4358 11.7031 66.8772 12.3828 66.4709 13.2812C66.0725 14.1797 65.8733 15.2578 65.8733 16.5156C65.8733 17.7891 66.0725 18.875 66.4709 19.7734C66.8772 20.6641 67.4358 21.3398 68.1467 21.8008C68.8655 22.2617 69.6858 22.4922 70.6077 22.4922C71.2874 22.4922 71.9084 22.3711 72.4709 22.1289C73.0334 21.8789 73.5061 21.5195 73.8889 21.0508C74.2795 20.582 74.5413 20.0234 74.6741 19.375L77.7561 19.3867C77.5999 20.4727 77.2053 21.4609 76.5725 22.3516C75.9397 23.2422 75.1077 23.9453 74.0764 24.4609C73.0452 24.9766 71.8772 25.2344 70.5725 25.2344C69.0803 25.2344 67.7444 24.8867 66.5647 24.1914C65.3928 23.4883 64.4749 22.4805 63.8108 21.168C63.1467 19.8477 62.8147 18.2969 62.8147 16.5156C62.8147 14.7188 63.1506 13.1641 63.8225 11.8516C64.4944 10.5391 65.4124 9.53516 66.5764 8.83984C67.7483 8.14453 69.0803 7.79688 70.5725 7.79688C71.8225 7.79688 72.9592 8.03516 73.9827 8.51172C75.0139 8.98047 75.8538 9.66406 76.5022 10.5625C77.1584 11.4531 77.5764 12.5156 77.7561 13.75H74.6741ZM95.51 16.5156C95.51 18.2969 95.1741 19.8477 94.5022 21.168C93.8381 22.4805 92.9163 23.4883 91.7366 24.1914C90.5569 24.8867 89.2209 25.2344 87.7288 25.2344C86.2366 25.2344 84.9006 24.8867 83.7209 24.1914C82.5491 23.4883 81.6272 22.4766 80.9553 21.1562C80.2834 19.8359 79.9475 18.2891 79.9475 16.5156C79.9475 14.7188 80.2834 13.1641 80.9553 11.8516C81.6272 10.5391 82.5491 9.53516 83.7209 8.83984C84.9006 8.14453 86.2366 7.79688 87.7288 7.79688C89.2209 7.79688 90.5569 8.14453 91.7366 8.83984C92.9163 9.53516 93.8381 10.5391 94.5022 11.8516C95.1741 13.1641 95.51 14.7188 95.51 16.5156ZM92.4514 16.5156C92.4514 15.25 92.2522 14.168 91.8538 13.2695C91.4631 12.3711 90.9124 11.6914 90.2014 11.2305C89.4983 10.7695 88.6741 10.5391 87.7288 10.5391C86.7991 10.5391 85.9749 10.7695 85.2561 11.2305C84.5452 11.6914 83.9905 12.3711 83.592 13.2695C83.2014 14.168 83.0061 15.25 83.0061 16.5156C83.0061 17.7812 83.2014 18.8633 83.592 19.7617C83.9905 20.6602 84.5452 21.3398 85.2561 21.8008C85.9749 22.2617 86.7991 22.4922 87.7288 22.4922C88.6741 22.4922 89.4983 22.2617 90.2014 21.8008C90.9124 21.3398 91.4631 20.6602 91.8538 19.7617C92.2522 18.8633 92.4514 17.7812 92.4514 16.5156ZM112.174 25H109.467L101.44 13.4102H101.287V25H98.2405V8.03125H100.983L108.987 19.6328H109.139V8.03125H112.174V25Z" fill="#0A0A0A"/>
</svg>
