<svg width="16" height="16" viewBox="0 0 16 16" fill="none" xmlns="http://www.w3.org/2000/svg">
<path d="M14 7.5C14 6.09847 13.547 4.73449 12.7085 3.61142C11.8701 2.48836 10.6911 1.66638 9.34737 1.26805C8.00364 0.869719 6.56715 0.916378 5.25211 1.40107C3.93706 1.88576 2.81389 2.78251 2.05009 3.95762C1.28628 5.13273 0.92275 6.52324 1.0137 7.92181C1.10465 9.32038 1.64521 10.6521 2.55478 11.7184C3.46434 12.7847 4.69419 13.5284 6.06094 13.8387C7.42769 14.149 8.85812 14.0092 10.1389 13.4402L9.73367 12.5279C8.64955 13.0096 7.43879 13.1279 6.28194 12.8652C5.12509 12.6026 4.08411 11.9731 3.31423 11.0706C2.54435 10.168 2.08681 9.04082 2.00983 7.85703C1.93284 6.67324 2.24055 5.49628 2.88705 4.50164C3.53356 3.507 4.48423 2.74796 5.59732 2.3377C6.71042 1.92745 7.9263 1.88796 9.06366 2.22511C10.201 2.56227 11.199 3.25801 11.9087 4.20861C12.6183 5.1592 13.0018 6.31371 13.0018 7.5H14Z" fill="#F5F5F5"/>
</svg>
