<svg width="15" height="7" viewBox="0 0 15 7" fill="none" xmlns="http://www.w3.org/2000/svg">
<path d="M2.81315 0.146447C3.00841 -0.0488155 3.32492 -0.0488155 3.52018 0.146447C3.71544 0.341709 3.71544 0.658216 3.52018 0.853478L1.20703 3.16663L3.52018 5.47978C3.71544 5.67504 3.71544 5.99155 3.52018 6.18681C3.32492 6.38207 3.00841 6.38207 2.81315 6.18681L0.146484 3.52014C-0.0487777 3.32488 -0.0487777 3.00838 0.146484 2.81311L2.81315 0.146447Z" fill="#525252"/>
<path d="M13.8333 2.66663C14.1095 2.66663 14.3333 2.89049 14.3333 3.16663C14.3333 3.44277 14.1095 3.66663 13.8333 3.66663H0.5C0.223858 3.66663 0 3.44277 0 3.16663C0 2.89049 0.223858 2.66663 0.5 2.66663H13.8333Z" fill="#525252"/>
</svg>
