<svg width="16" height="16" viewBox="0 0 16 16" fill="none" xmlns="http://www.w3.org/2000/svg">
<path d="M14 7.5C14 6.26655 13.649 5.05856 12.9881 4.01713C12.3272 2.97569 11.3836 2.1438 10.2676 1.61862C9.15151 1.09345 7.90906 0.896662 6.68533 1.05125C5.46161 1.20585 4.30713 1.70543 3.35674 2.49166C2.40636 3.27789 1.69929 4.31831 1.31813 5.49139C0.936976 6.66447 0.897463 7.92179 1.20421 9.11648C1.51096 10.3112 2.1513 11.3939 3.05044 12.2383C3.94959 13.0827 5.07042 13.6537 6.28202 13.8849L6.62306 12.0971C5.7507 11.9307 4.9437 11.5195 4.29632 10.9116C3.64893 10.3036 3.18789 9.52405 2.96703 8.66387C2.74617 7.80369 2.77462 6.89842 3.04906 6.0538C3.32349 5.20918 3.83258 4.46008 4.51686 3.894C5.20114 3.32791 6.03236 2.96821 6.91344 2.8569C7.79452 2.7456 8.68909 2.88728 9.49265 3.26541C10.2962 3.64354 10.9756 4.2425 11.4515 4.99233C11.9273 5.74216 12.18 6.61192 12.18 7.5H14Z" fill="#F5F5F5"/>
</svg>
