<svg width="13" height="13" viewBox="0 0 13 13" fill="none" xmlns="http://www.w3.org/2000/svg">
<path d="M8.81315 2.81315C9.00841 2.61789 9.32492 2.61789 9.52018 2.81315L12.8535 6.14648C13.0488 6.34175 13.0488 6.65825 12.8535 6.85352L9.52018 10.1868C9.32492 10.3821 9.00841 10.3821 8.81315 10.1868C8.61789 9.99159 8.61789 9.67508 8.81315 9.47982L11.793 6.5L8.81315 3.52018C8.61789 3.32492 8.61789 3.00841 8.81315 2.81315Z" fill="#FAFAFA"/>
<path d="M12.5 6C12.7761 6 13 6.22386 13 6.5C13 6.77614 12.7761 7 12.5 7H4.5C4.22386 7 4 6.77614 4 6.5C4 6.22386 4.22386 6 4.5 6H12.5Z" fill="#FAFAFA"/>
<path d="M0 11.1667V1.83333C0 1.3471 0.193293 0.880926 0.537109 0.537109C0.880926 0.193293 1.3471 0 1.83333 0H4.5C4.77614 0 5 0.223858 5 0.5C5 0.776142 4.77614 1 4.5 1H1.83333C1.61232 1 1.40042 1.08786 1.24414 1.24414C1.08786 1.40042 1 1.61232 1 1.83333V11.1667C1 11.3877 1.08786 11.5996 1.24414 11.7559C1.40042 11.9121 1.61232 12 1.83333 12H4.5C4.77614 12 5 12.2239 5 12.5C5 12.7761 4.77614 13 4.5 13H1.83333C1.3471 13 0.880926 12.8067 0.537109 12.4629C0.193293 12.1191 0 11.6529 0 11.1667Z" fill="#FAFAFA"/>
</svg>
