<svg width="117" height="32" viewBox="0 0 117 32" fill="none" xmlns="http://www.w3.org/2000/svg">
<path d="M16 17C16.5523 17 17 16.5523 17 16C17 15.4477 16.5523 15 16 15C15.4477 15 15 15.4477 15 16C15 16.5523 15.4477 17 16 17Z" fill="#0EA5E9"/>
<path d="M16.1246 3.3693L16.9095 12.0041C16.9581 12.5388 16.5371 12.9999 16.0001 12.9999C15.4631 12.9999 15.042 12.5388 15.0906 12.0041L15.8756 3.3693C15.8894 3.21772 16.1107 3.21772 16.1246 3.3693Z" fill="#0EA5E9"/>
<path d="M16.1246 28.6306L16.9095 19.9959C16.9581 19.4611 16.5371 19 16.0001 19C15.4631 19 15.042 19.4611 15.0906 19.9959L15.8756 28.6306C15.8894 28.7822 16.1107 28.7822 16.1246 28.6306Z" fill="#0EA5E9"/>
<path d="M3.3693 16.1246L12.0041 16.9095C12.5388 16.9581 12.9999 16.5371 12.9999 16.0001C12.9999 15.4631 12.5388 15.042 12.0041 15.0906L3.3693 15.8756C3.21772 15.8894 3.21772 16.1107 3.3693 16.1246Z" fill="#0EA5E9"/>
<path d="M20.9075 22.318C21.3436 21.9792 21.9735 21.9734 22.364 22.3639C22.7546 22.7545 22.7574 23.3921 22.3298 23.7417C21.0654 24.7755 19.5627 25.4873 17.951 25.8079C17.7601 25.8458 17.5684 25.8781 17.3764 25.9048L17.5636 23.8456C18.7861 23.602 19.9301 23.0771 20.9075 22.318ZM8.15443 17.5636C8.35856 18.5879 8.76237 19.5676 9.34831 20.4446C10.2274 21.7602 11.4768 22.7856 12.9386 23.3911C13.4242 23.5922 13.9259 23.7439 14.4364 23.8456L14.6237 25.9047C13.7863 25.7883 12.9626 25.5658 12.1732 25.2388C10.346 24.4819 8.78418 23.2002 7.68537 21.5558C6.84337 20.2956 6.30218 18.8658 6.09521 17.3763L8.15443 17.5636ZM14.4364 8.15431C13.9259 8.25606 13.4242 8.40781 12.9386 8.60894C11.4768 9.21444 10.2274 10.2398 9.34831 11.5554C8.76237 12.4324 8.35856 13.412 8.15443 14.4364L6.09521 14.6236C6.30218 13.1342 6.84337 11.7044 7.68537 10.4443C8.78418 8.79981 10.346 7.51813 12.1732 6.76125C12.9626 6.43425 13.7863 6.21164 14.6237 6.09528L14.4364 8.15431ZM17.3764 6.09521C17.5684 6.1219 17.7601 6.15417 17.951 6.19214C19.5627 6.51275 21.0654 7.2245 22.3298 8.25831C22.7574 8.60788 22.7546 9.2455 22.364 9.63607C21.9735 10.0266 21.3436 10.0208 20.9075 9.682C19.9301 8.92288 18.7861 8.39794 17.5636 8.15431L17.3764 6.09521Z" fill="#0EA5E9"/>
<path d="M28.6306 16.1246L19.9959 16.9095C19.4611 16.9581 19 16.5371 19 16.0001C19 15.4631 19.4611 15.042 19.9959 15.0906L28.6306 15.8756C28.7822 15.8894 28.7822 16.1107 28.6306 16.1246Z" fill="#0EA5E9"/>
<path d="M37.582 8.03125H43.9336C45.2148 8.03125 46.3047 8.25391 47.2031 8.69922C48.1016 9.14453 48.7773 9.77734 49.2305 10.5977C49.6914 11.418 49.9219 12.3711 49.9219 13.457C49.9219 14.543 49.6914 15.4844 49.2305 16.2812C48.7695 17.0781 48.0859 17.6953 47.1797 18.1328C46.2734 18.5703 45.1758 18.7891 43.8867 18.7891H39.3398V16.2344H43.4766C44.25 16.2344 44.8789 16.1289 45.3633 15.918C45.8477 15.6992 46.207 15.3867 46.4414 14.9805C46.6836 14.5742 46.8047 14.0664 46.8047 13.457C46.8047 12.8398 46.6836 12.3203 46.4414 11.8984C46.207 11.4688 45.8438 11.1445 45.3516 10.9258C44.8594 10.6992 44.2305 10.5859 43.4648 10.5859H40.6289V25H37.582V8.03125ZM50.5312 25H47.1094L42.9961 17.3242H46.3359L50.5312 25ZM52.5586 8.03125H63.5859V10.5977H55.6055V15.2383H63.0117V17.7812H55.6055V22.4336H63.6328V25H52.5586V8.03125ZM77.9297 13.75C77.8203 13.0859 77.5742 12.5117 77.1914 12.0273C76.8164 11.543 76.3398 11.1758 75.7617 10.9258C75.1914 10.668 74.5625 10.5391 73.875 10.5391C72.9453 10.5391 72.1211 10.7734 71.4023 11.2422C70.6914 11.7031 70.1328 12.3828 69.7266 13.2812C69.3281 14.1797 69.1289 15.2578 69.1289 16.5156C69.1289 17.7891 69.3281 18.875 69.7266 19.7734C70.1328 20.6641 70.6914 21.3398 71.4023 21.8008C72.1211 22.2617 72.9414 22.4922 73.8633 22.4922C74.543 22.4922 75.1641 22.3711 75.7266 22.1289C76.2891 21.8789 76.7617 21.5195 77.1445 21.0508C77.5352 20.582 77.7969 20.0234 77.9297 19.375L81.0117 19.3867C80.8555 20.4727 80.4609 21.4609 79.8281 22.3516C79.1953 23.2422 78.3633 23.9453 77.332 24.4609C76.3008 24.9766 75.1328 25.2344 73.8281 25.2344C72.3359 25.2344 71 24.8867 69.8203 24.1914C68.6484 23.4883 67.7305 22.4805 67.0664 21.168C66.4023 19.8477 66.0703 18.2969 66.0703 16.5156C66.0703 14.7188 66.4062 13.1641 67.0781 11.8516C67.75 10.5391 68.668 9.53516 69.832 8.83984C71.0039 8.14453 72.3359 7.79688 73.8281 7.79688C75.0781 7.79688 76.2148 8.03516 77.2383 8.51172C78.2695 8.98047 79.1094 9.66406 79.7578 10.5625C80.4141 11.4531 80.832 12.5156 81.0117 13.75H77.9297ZM98.7656 16.5156C98.7656 18.2969 98.4297 19.8477 97.7578 21.168C97.0938 22.4805 96.1719 23.4883 94.9922 24.1914C93.8125 24.8867 92.4766 25.2344 90.9844 25.2344C89.4922 25.2344 88.1562 24.8867 86.9766 24.1914C85.8047 23.4883 84.8828 22.4766 84.2109 21.1562C83.5391 19.8359 83.2031 18.2891 83.2031 16.5156C83.2031 14.7188 83.5391 13.1641 84.2109 11.8516C84.8828 10.5391 85.8047 9.53516 86.9766 8.83984C88.1562 8.14453 89.4922 7.79688 90.9844 7.79688C92.4766 7.79688 93.8125 8.14453 94.9922 8.83984C96.1719 9.53516 97.0938 10.5391 97.7578 11.8516C98.4297 13.1641 98.7656 14.7188 98.7656 16.5156ZM95.707 16.5156C95.707 15.25 95.5078 14.168 95.1094 13.2695C94.7188 12.3711 94.168 11.6914 93.457 11.2305C92.7539 10.7695 91.9297 10.5391 90.9844 10.5391C90.0547 10.5391 89.2305 10.7695 88.5117 11.2305C87.8008 11.6914 87.2461 12.3711 86.8477 13.2695C86.457 14.168 86.2617 15.25 86.2617 16.5156C86.2617 17.7812 86.457 18.8633 86.8477 19.7617C87.2461 20.6602 87.8008 21.3398 88.5117 21.8008C89.2305 22.2617 90.0547 22.4922 90.9844 22.4922C91.9297 22.4922 92.7539 22.2617 93.457 21.8008C94.168 21.3398 94.7188 20.6602 95.1094 19.7617C95.5078 18.8633 95.707 17.7812 95.707 16.5156ZM115.43 25H112.723L104.695 13.4102H104.543V25H101.496V8.03125H104.238L112.242 19.6328H112.395V8.03125H115.43V25Z" fill="#0A0A0A"/>
</svg>
