<svg width="16" height="16" viewBox="0 0 16 16" fill="none" xmlns="http://www.w3.org/2000/svg">
<g clip-path="url(#clip0_23_1225)">
<path d="M14.1633 7.99994C14.1633 7.63626 14.0717 7.27857 13.897 6.95957C13.7223 6.64056 13.4704 6.37034 13.1639 6.17442C12.9867 6.06105 12.8997 5.84907 12.9458 5.64382C13.026 5.28731 13.0144 4.916 12.9126 4.56504C12.8109 4.21414 12.6221 3.89435 12.3638 3.636C12.1054 3.37767 11.7857 3.18889 11.4348 3.08718C11.0839 2.9855 10.713 2.97454 10.3566 3.05462C10.1513 3.10079 9.93876 3.01317 9.82539 2.83587C9.62953 2.52959 9.35974 2.27745 9.04089 2.1028C8.72187 1.92813 8.36357 1.83652 7.99987 1.83652C7.63622 1.83655 7.27847 1.92816 6.95951 2.1028C6.64049 2.27747 6.37027 2.52945 6.17435 2.83587C6.06104 3.01308 5.84899 3.10064 5.64375 3.05462C5.28784 2.97486 4.91727 2.98636 4.56693 3.08783C4.21666 3.18933 3.89733 3.37775 3.63919 3.63535C3.38112 3.89299 3.19254 4.21173 3.09036 4.56179C2.98816 4.91196 2.9755 5.28249 3.05456 5.63861C3.10012 5.84433 3.01191 6.05652 2.83385 6.16921C2.52518 6.36459 2.27113 6.63501 2.09492 6.95501C1.91869 7.2751 1.82605 7.63455 1.82604 7.99994C1.82604 8.36535 1.91869 8.72476 2.09492 9.04486C2.27112 9.36489 2.52518 9.63527 2.83385 9.83067C3.01198 9.9434 3.10024 10.1561 3.05456 10.3619C2.97557 10.7179 2.98822 11.088 3.09036 11.4381C3.19258 11.7883 3.38099 12.1075 3.63919 12.3652C3.89737 12.6228 4.2166 12.8112 4.56693 12.9127C4.91728 13.0142 5.28783 13.025 5.64375 12.9452C5.84928 12.8992 6.06183 12.987 6.175 13.1647C6.37067 13.4722 6.64125 13.7255 6.96081 13.901C7.28029 14.0764 7.63867 14.1685 8.00313 14.1686C8.36768 14.1686 8.72654 14.0764 9.04609 13.901C9.3656 13.7255 9.6356 13.4722 9.83125 13.1647C9.94419 12.9872 10.1565 12.8997 10.3618 12.9452C10.7178 13.0242 11.088 13.0122 11.438 12.9101C11.7882 12.8079 12.1074 12.6188 12.3651 12.3606C12.6228 12.1024 12.8112 11.7833 12.9126 11.4329C13.0141 11.0825 13.025 10.712 12.9452 10.3561C12.8992 10.1509 12.9868 9.93876 13.1639 9.82546C13.4704 9.62953 13.7223 9.35931 13.897 9.0403C14.0716 8.72131 14.1633 8.3636 14.1633 7.99994ZM15.1633 7.99994C15.1633 8.53145 15.0298 9.05456 14.7746 9.52077C14.5735 9.88805 14.3008 10.2095 13.9758 10.47C14.0233 10.8854 13.9898 11.3071 13.8729 11.7109C13.7246 12.223 13.4494 12.6896 13.0728 13.067C12.6962 13.4443 12.2304 13.7203 11.7186 13.8697C11.3151 13.9875 10.8933 14.0219 10.4777 13.9752C10.2173 14.3018 9.89533 14.5758 9.52721 14.7779C9.06021 15.0343 8.53587 15.1686 8.00313 15.1686C7.47038 15.1685 6.94602 15.0343 6.47904 14.7779C6.11105 14.5759 5.7889 14.3023 5.52852 13.9758C5.11355 14.0232 4.69224 13.9898 4.28893 13.873C3.77684 13.7247 3.31019 13.4494 2.93281 13.0729C2.5555 12.6963 2.27946 12.2304 2.13008 11.7187C2.01236 11.3154 1.97738 10.8938 2.02396 10.4785C1.69627 10.2182 1.42154 9.89584 1.21862 9.52728C0.961055 9.05945 0.826042 8.53398 0.826042 7.99994C0.826053 7.46589 0.96105 6.94042 1.21862 6.47259C1.42162 6.10391 1.69612 5.78111 2.02396 5.52077C1.97752 5.10571 2.01243 4.68424 2.13008 4.28119C2.27948 3.76949 2.5555 3.30357 2.93281 2.92702C3.3102 2.55042 3.77683 2.27521 4.28893 2.12689C4.69242 2.01003 5.11402 1.97596 5.52917 2.02337C5.78955 1.69842 6.11188 1.42692 6.47904 1.22585C6.94525 0.970577 7.46835 0.836547 7.99987 0.836525C8.53143 0.836525 9.05445 0.970558 9.5207 1.22585C9.88778 1.42684 10.2096 1.69856 10.4699 2.02337C10.8861 1.97551 11.3089 2.00964 11.7134 2.12689C12.2262 2.27557 12.6933 2.55144 13.0708 2.92897C13.4485 3.30661 13.7242 3.7741 13.8729 4.28705C13.99 4.69123 14.0241 5.11338 13.9764 5.52923C14.3015 5.78967 14.5735 6.11183 14.7746 6.4791C15.0299 6.94532 15.1633 7.46841 15.1633 7.99994Z" fill="#FEF2F2"/>
<path d="M7.5 8V5.33333C7.5 5.05719 7.72386 4.83333 8 4.83333C8.27614 4.83333 8.5 5.05719 8.5 5.33333V8C8.5 8.27614 8.27614 8.5 8 8.5C7.72386 8.5 7.5 8.27614 7.5 8Z" fill="#FEF2F2"/>
<path d="M8.00651 10.1667C8.28265 10.1667 8.50651 10.3905 8.50651 10.6667C8.50651 10.9428 8.28265 11.1667 8.00651 11.1667H8C7.72386 11.1667 7.5 10.9428 7.5 10.6667C7.5 10.3905 7.72386 10.1667 8 10.1667H8.00651Z" fill="#FEF2F2"/>
<path d="M14.1633 7.99994C14.1633 7.63626 14.0717 7.27857 13.897 6.95957C13.7223 6.64056 13.4704 6.37034 13.1639 6.17442C12.9867 6.06105 12.8997 5.84907 12.9458 5.64382C13.026 5.28731 13.0144 4.916 12.9126 4.56504C12.8109 4.21414 12.6221 3.89435 12.3638 3.636C12.1054 3.37767 11.7857 3.18889 11.4348 3.08718C11.0839 2.9855 10.713 2.97454 10.3566 3.05462C10.1513 3.10079 9.93876 3.01317 9.82539 2.83587C9.62953 2.52959 9.35974 2.27745 9.04089 2.1028C8.72187 1.92813 8.36357 1.83652 7.99987 1.83652C7.63622 1.83655 7.27847 1.92816 6.95951 2.1028C6.64049 2.27747 6.37027 2.52945 6.17435 2.83587C6.06104 3.01308 5.84899 3.10064 5.64375 3.05462C5.28784 2.97486 4.91727 2.98636 4.56693 3.08783C4.21666 3.18933 3.89733 3.37775 3.63919 3.63535C3.38112 3.89299 3.19254 4.21173 3.09036 4.56179C2.98816 4.91196 2.9755 5.28249 3.05456 5.63861C3.10012 5.84433 3.01191 6.05652 2.83385 6.16921C2.52518 6.36459 2.27113 6.63501 2.09492 6.95501C1.91869 7.2751 1.82605 7.63455 1.82604 7.99994C1.82604 8.36535 1.91869 8.72476 2.09492 9.04486C2.27112 9.36489 2.52518 9.63527 2.83385 9.83067C3.01198 9.9434 3.10024 10.1561 3.05456 10.3619C2.97557 10.7179 2.98822 11.088 3.09036 11.4381C3.19258 11.7883 3.38099 12.1075 3.63919 12.3652C3.89737 12.6228 4.2166 12.8112 4.56693 12.9127C4.91728 13.0142 5.28783 13.025 5.64375 12.9452C5.84928 12.8992 6.06183 12.987 6.175 13.1647C6.37067 13.4722 6.64125 13.7255 6.96081 13.901C7.28029 14.0764 7.63867 14.1685 8.00313 14.1686C8.36768 14.1686 8.72654 14.0764 9.04609 13.901C9.3656 13.7255 9.6356 13.4722 9.83125 13.1647C9.94419 12.9872 10.1565 12.8997 10.3618 12.9452C10.7178 13.0242 11.088 13.0122 11.438 12.9101C11.7882 12.8079 12.1074 12.6188 12.3651 12.3606C12.6228 12.1024 12.8112 11.7833 12.9126 11.4329C13.0141 11.0825 13.025 10.712 12.9452 10.3561C12.8992 10.1509 12.9868 9.93876 13.1639 9.82546C13.4704 9.62953 13.7223 9.35931 13.897 9.0403C14.0716 8.72131 14.1633 8.3636 14.1633 7.99994ZM15.1633 7.99994C15.1633 8.53145 15.0298 9.05456 14.7746 9.52077C14.5735 9.88805 14.3008 10.2095 13.9758 10.47C14.0233 10.8854 13.9898 11.3071 13.8729 11.7109C13.7246 12.223 13.4494 12.6896 13.0728 13.067C12.6962 13.4443 12.2304 13.7203 11.7186 13.8697C11.3151 13.9875 10.8933 14.0219 10.4777 13.9752C10.2173 14.3018 9.89533 14.5758 9.52721 14.7779C9.06021 15.0343 8.53587 15.1686 8.00313 15.1686C7.47038 15.1685 6.94602 15.0343 6.47904 14.7779C6.11105 14.5759 5.7889 14.3023 5.52852 13.9758C5.11355 14.0232 4.69224 13.9898 4.28893 13.873C3.77684 13.7247 3.31019 13.4494 2.93281 13.0729C2.5555 12.6963 2.27946 12.2304 2.13008 11.7187C2.01236 11.3154 1.97738 10.8938 2.02396 10.4785C1.69627 10.2182 1.42154 9.89584 1.21862 9.52728C0.961055 9.05945 0.826042 8.53398 0.826042 7.99994C0.826053 7.46589 0.96105 6.94042 1.21862 6.47259C1.42162 6.10391 1.69612 5.78111 2.02396 5.52077C1.97752 5.10571 2.01243 4.68424 2.13008 4.28119C2.27948 3.76949 2.5555 3.30357 2.93281 2.92702C3.3102 2.55042 3.77683 2.27521 4.28893 2.12689C4.69242 2.01003 5.11402 1.97596 5.52917 2.02337C5.78955 1.69842 6.11188 1.42692 6.47904 1.22585C6.94525 0.970577 7.46835 0.836547 7.99987 0.836525C8.53143 0.836525 9.05445 0.970558 9.5207 1.22585C9.88778 1.42684 10.2096 1.69856 10.4699 2.02337C10.8861 1.97551 11.3089 2.00964 11.7134 2.12689C12.2262 2.27557 12.6933 2.55144 13.0708 2.92897C13.4485 3.30661 13.7242 3.7741 13.8729 4.28705C13.99 4.69123 14.0241 5.11338 13.9764 5.52923C14.3015 5.78967 14.5735 6.11183 14.7746 6.4791C15.0299 6.94532 15.1633 7.46841 15.1633 7.99994Z" stroke="white" stroke-width="0.4" stroke-linecap="round" stroke-linejoin="round"/>
<path d="M7.5 8V5.33333C7.5 5.05719 7.72386 4.83333 8 4.83333C8.27614 4.83333 8.5 5.05719 8.5 5.33333V8C8.5 8.27614 8.27614 8.5 8 8.5C7.72386 8.5 7.5 8.27614 7.5 8Z" stroke="white" stroke-width="0.4" stroke-linecap="round" stroke-linejoin="round"/>
<path d="M8.00651 10.1667C8.28265 10.1667 8.50651 10.3905 8.50651 10.6667C8.50651 10.9428 8.28265 11.1667 8.00651 11.1667H8C7.72386 11.1667 7.5 10.9428 7.5 10.6667C7.5 10.3905 7.72386 10.1667 8 10.1667H8.00651Z" stroke="white" stroke-width="0.4" stroke-linecap="round" stroke-linejoin="round"/>
</g>
<defs>
<clipPath id="clip0_23_1225">
<rect width="16" height="16" fill="white"/>
</clipPath>
</defs>
</svg>
