<svg width="20" height="22" viewBox="0 0 20 22" fill="none" xmlns="http://www.w3.org/2000/svg">
<path d="M11.2369 2.75C11.2369 2.41848 11.1051 2.10063 10.8707 1.86621C10.6363 1.63188 10.3184 1.5 9.9869 1.5H9.54744C9.21599 1.5 8.89806 1.63188 8.66366 1.86621C8.42923 2.10063 8.29744 2.41848 8.29744 2.75V2.93066C8.29695 3.41273 8.16947 3.88631 7.9283 4.30371C7.6873 4.72064 7.34027 5.06654 6.92342 5.30762L6.49373 5.55859L6.49178 5.55957C6.0738 5.80081 5.59938 5.92773 5.11678 5.92773C4.63419 5.92767 4.15972 5.80087 3.74178 5.55957L3.61385 5.49219C3.60655 5.48829 3.59953 5.48363 3.59237 5.47949C3.30563 5.31413 2.96488 5.26906 2.6451 5.35449C2.32533 5.44 2.0523 5.64918 1.88631 5.93555L1.66658 6.31543L1.66561 6.31445C1.50029 6.60122 1.45607 6.94291 1.54158 7.2627C1.61647 7.54246 1.7861 7.78637 2.01912 7.9541L2.12264 8.02148L2.16365 8.0459L2.31307 8.14551C2.71029 8.38416 3.0418 8.71905 3.27498 9.12012C3.51605 9.53489 3.64414 10.0056 3.64705 10.4854V10.9971L3.64217 11.1787C3.61596 11.6 3.4929 12.0105 3.28182 12.3779C3.04036 12.7981 2.69171 13.1474 2.27205 13.3896L2.27108 13.3887L2.13338 13.4727L2.12264 13.4795L2.12166 13.4785C1.83565 13.6445 1.62709 13.9179 1.54158 14.2373C1.45615 14.5568 1.50064 14.898 1.66561 15.1846L1.88631 15.5645C2.0523 15.8508 2.32533 16.06 2.6451 16.1455C2.96488 16.2309 3.30563 16.1859 3.59237 16.0205L3.61385 16.0078L3.74178 15.9404C4.15972 15.6991 4.63419 15.5723 5.11678 15.5723C5.59938 15.5723 6.07381 15.6992 6.49178 15.9404L6.49373 15.9414L6.92244 16.1904L7.07576 16.2861C7.42506 16.5197 7.71722 16.8311 7.9283 17.1963C8.16947 17.6137 8.29695 18.0873 8.29744 18.5693V18.75C8.29744 19.0815 8.42923 19.3994 8.66366 19.6338C8.89806 19.8681 9.21599 20 9.54744 20H9.9869C10.3184 20 10.6363 19.8681 10.8707 19.6338C11.1051 19.3994 11.2369 19.0815 11.2369 18.75V18.5693C11.2374 18.0873 11.3649 17.6137 11.606 17.1963C11.8473 16.7788 12.1943 16.4315 12.6119 16.1904L13.0406 15.9414L13.0426 15.9404C13.4605 15.6992 13.935 15.5723 14.4176 15.5723C14.9002 15.5723 15.3746 15.6991 15.7926 15.9404L15.9205 16.0078L15.942 16.0205C16.2287 16.1859 16.5695 16.2309 16.8892 16.1455C17.209 16.06 17.482 15.8508 17.648 15.5645L17.8638 15.1816L17.8678 15.1748C18.033 14.8881 18.0783 14.5473 17.9928 14.2275C17.9078 13.91 17.7008 13.6389 17.4176 13.4727L17.2838 13.4014C17.2766 13.3975 17.2694 13.3937 17.2623 13.3896C16.8426 13.1474 16.494 12.7981 16.2525 12.3779C16.0112 11.9579 15.8854 11.4815 15.8873 10.9971V10.5C15.8859 10.0166 16.0117 9.54126 16.2525 9.12207C16.4638 8.75447 16.7569 8.44088 17.108 8.20605L17.2623 8.11035L17.401 8.02734L17.4117 8.02051C17.6979 7.85456 17.9072 7.58226 17.9928 7.2627C18.0783 6.9428 18.0332 6.60129 17.8678 6.31445L17.648 5.93555C17.482 5.64918 17.209 5.44 16.8892 5.35449C16.5695 5.26906 16.2287 5.31413 15.942 5.47949C15.9348 5.48363 15.9278 5.48829 15.9205 5.49219L15.7916 5.55859C15.3737 5.79988 14.9001 5.92767 14.4176 5.92773C13.935 5.92773 13.4605 5.80082 13.0426 5.55957L13.0406 5.55859L12.6099 5.30859C12.1934 5.06753 11.8469 4.72039 11.606 4.30371C11.3649 3.88631 11.2374 3.41273 11.2369 2.93066V2.75ZM12.7369 2.92969L12.7476 3.09277C12.7692 3.25464 12.8226 3.41142 12.9049 3.55371C12.9872 3.69609 13.0965 3.82046 13.2262 3.91992L13.3619 4.01074L13.3639 4.01172L13.7926 4.26074L13.939 4.33301C14.0901 4.39555 14.253 4.42773 14.4176 4.42773C14.6368 4.42767 14.8526 4.37039 15.0426 4.26074L15.064 4.24805L15.2144 4.16797C15.8409 3.81423 16.5813 3.72024 17.2769 3.90625C17.9806 4.09446 18.5808 4.55422 18.9459 5.18457L19.1666 5.56445C19.5305 6.19542 19.6291 6.94571 19.441 7.64941C19.2538 8.34953 18.7978 8.94684 18.1724 9.3125L18.023 9.40332L18.0123 9.40918C17.8215 9.51931 17.6631 9.67817 17.5533 9.86914C17.4436 10.0601 17.3864 10.2768 17.3873 10.4971V11.0029C17.3864 11.2232 17.4436 11.4399 17.5533 11.6309C17.6619 11.8199 17.8183 11.9769 18.0064 12.0869L18.1402 12.1582L18.1627 12.1709C18.7929 12.5359 19.2527 13.1363 19.441 13.8398C19.6286 14.5413 19.5306 15.2882 19.1695 15.918L18.9508 16.3086L18.9459 16.3164L18.9449 16.3154C18.5798 16.9457 17.9806 17.4056 17.2769 17.5938C16.5811 17.7798 15.841 17.685 15.2144 17.3311L15.064 17.252C15.0567 17.248 15.0498 17.2434 15.0426 17.2393C14.8526 17.1296 14.6368 17.0723 14.4176 17.0723C14.1983 17.0723 13.9825 17.1297 13.7926 17.2393L13.3639 17.4883L13.3619 17.4893C13.1721 17.5988 13.0145 17.7566 12.9049 17.9463C12.7952 18.1359 12.7372 18.3513 12.7369 18.5703V18.75C12.7369 19.4793 12.447 20.1786 11.9312 20.6943C11.4155 21.21 10.7162 21.5 9.9869 21.5H9.54744C8.81816 21.5 8.11882 21.21 7.60311 20.6943C7.08738 20.1786 6.79744 19.4793 6.79744 18.75V18.5703C6.79714 18.3513 6.7391 18.1359 6.62948 17.9463C6.5198 17.7566 6.3622 17.5988 6.17244 17.4893L6.17049 17.4883L5.74178 17.2393C5.55185 17.1297 5.33604 17.0723 5.11678 17.0723C4.8975 17.0723 4.68169 17.1296 4.49178 17.2393C4.48458 17.2434 4.47763 17.248 4.4703 17.252L4.3199 17.332L4.31893 17.3311C3.69257 17.6846 2.95292 17.7797 2.2574 17.5938C1.5537 17.4055 0.953568 16.9458 0.58846 16.3154L0.367756 15.9355C0.00379413 15.3046 -0.0947691 14.5543 0.0933424 13.8506C0.280522 13.1506 0.735734 12.5522 1.36092 12.1865L1.51131 12.0967L1.52205 12.0908C1.7128 11.9807 1.87128 11.8218 1.98104 11.6309C2.09079 11.4399 2.14793 11.2232 2.14705 11.0029V10.4941C2.14567 10.2762 2.08758 10.0624 1.97811 9.87402C1.86848 9.68546 1.71094 9.52899 1.52205 9.41992C1.5081 9.41187 1.49444 9.40249 1.48104 9.39355L1.33162 9.29395C0.722207 8.92681 0.277447 8.33792 0.0933424 7.64941C-0.0947692 6.94571 0.00379422 6.1964 0.367756 5.56543L0.58846 5.18457C0.953568 4.55423 1.55369 4.09446 2.2574 3.90625C2.95277 3.72031 3.69266 3.81458 4.31893 4.16797L4.4703 4.24805L4.49178 4.26074C4.68169 4.37039 4.89749 4.42767 5.11678 4.42773C5.33604 4.42773 5.55186 4.3703 5.74178 4.26074L6.17049 4.01172L6.17244 4.01074C6.3622 3.90116 6.5198 3.74341 6.62948 3.55371C6.71172 3.41142 6.76518 3.25464 6.7867 3.09277L6.79744 2.92969V2.75C6.79744 2.02065 7.08738 1.32139 7.60311 0.805664C8.11882 0.290024 8.81816 0 9.54744 0H9.9869C10.7162 0 11.4155 0.290025 11.9312 0.805664C12.447 1.32139 12.7369 2.02065 12.7369 2.75V2.92969Z" fill="#525252"/>
<path d="M12.0172 10.75C12.0172 9.50736 11.0098 8.5 9.76717 8.5C8.52453 8.5 7.51717 9.50736 7.51717 10.75C7.51717 11.9926 8.52453 13 9.76717 13C11.0098 13 12.0172 11.9926 12.0172 10.75ZM13.5172 10.75C13.5172 12.8211 11.8382 14.5 9.76717 14.5C7.6961 14.5 6.01717 12.8211 6.01717 10.75C6.01717 8.67893 7.6961 7 9.76717 7C11.8382 7 13.5172 8.67893 13.5172 10.75Z" fill="#525252"/>
</svg>
