<svg width="16" height="16" viewBox="0 0 16 16" fill="none" xmlns="http://www.w3.org/2000/svg">
<path d="M3.64652 4.97982C3.84179 4.78456 4.15829 4.78456 4.35356 4.97982C4.54882 5.17508 4.54882 5.49159 4.35356 5.68685L2.04041 8L4.35356 10.3132C4.54882 10.5084 4.54882 10.8249 4.35356 11.0202C4.15829 11.2154 3.84179 11.2154 3.64652 11.0202L0.979858 8.35352C0.784596 8.15826 0.784596 7.84175 0.979858 7.64649L3.64652 4.97982Z" fill="#525252"/>
<path d="M14.6667 7.5C14.9428 7.5 15.1667 7.72386 15.1667 8C15.1667 8.27615 14.9428 8.5 14.6667 8.5H1.33337C1.05723 8.5 0.833374 8.27615 0.833374 8C0.833374 7.72386 1.05723 7.5 1.33337 7.5H14.6667Z" fill="#525252"/>
<path d="M3.64652 4.97982C3.84179 4.78456 4.15829 4.78456 4.35356 4.97982C4.54882 5.17508 4.54882 5.49159 4.35356 5.68685L2.04041 8L4.35356 10.3132C4.54882 10.5084 4.54882 10.8249 4.35356 11.0202C4.15829 11.2154 3.84179 11.2154 3.64652 11.0202L0.979858 8.35352C0.784596 8.15826 0.784596 7.84175 0.979858 7.64649L3.64652 4.97982Z" stroke="#525252" stroke-width="0.4" stroke-linecap="round" stroke-linejoin="round"/>
<path d="M14.6667 7.5C14.9428 7.5 15.1667 7.72386 15.1667 8C15.1667 8.27615 14.9428 8.5 14.6667 8.5H1.33337C1.05723 8.5 0.833374 8.27615 0.833374 8C0.833374 7.72386 1.05723 7.5 1.33337 7.5H14.6667Z" stroke="#525252" stroke-width="0.4" stroke-linecap="round" stroke-linejoin="round"/>
</svg>
