<svg width="16" height="16" viewBox="0 0 16 16" fill="none" xmlns="http://www.w3.org/2000/svg">
<path d="M10.3132 4.31315C10.5084 4.11789 10.8249 4.11789 11.0202 4.31315L14.3535 7.64648C14.5488 7.84175 14.5488 8.15825 14.3535 8.35352L11.0202 11.6868C10.8249 11.8821 10.5084 11.8821 10.3132 11.6868C10.1179 11.4916 10.1179 11.1751 10.3132 10.9798L13.293 8L10.3132 5.02018C10.1179 4.82492 10.1179 4.50841 10.3132 4.31315Z" fill="#FAFAFA"/>
<path d="M14 7.5C14.2761 7.5 14.5 7.72386 14.5 8C14.5 8.27614 14.2761 8.5 14 8.5H6C5.72386 8.5 5.5 8.27614 5.5 8C5.5 7.72386 5.72386 7.5 6 7.5H14Z" fill="#FAFAFA"/>
<path d="M1.5 12.6667V3.33333C1.5 2.8471 1.69329 2.38093 2.03711 2.03711C2.38093 1.69329 2.8471 1.5 3.33333 1.5H6C6.27614 1.5 6.5 1.72386 6.5 2C6.5 2.27614 6.27614 2.5 6 2.5H3.33333C3.11232 2.5 2.90042 2.58786 2.74414 2.74414C2.58786 2.90042 2.5 3.11232 2.5 3.33333V12.6667C2.5 12.8877 2.58786 13.0996 2.74414 13.2559C2.90042 13.4121 3.11232 13.5 3.33333 13.5H6C6.27614 13.5 6.5 13.7239 6.5 14C6.5 14.2761 6.27614 14.5 6 14.5H3.33333C2.8471 14.5 2.38093 14.3067 2.03711 13.9629C1.69329 13.6191 1.5 13.1529 1.5 12.6667Z" fill="#FAFAFA"/>
<path d="M10.3132 4.31315C10.5084 4.11789 10.8249 4.11789 11.0202 4.31315L14.3535 7.64648C14.5488 7.84175 14.5488 8.15825 14.3535 8.35352L11.0202 11.6868C10.8249 11.8821 10.5084 11.8821 10.3132 11.6868C10.1179 11.4916 10.1179 11.1751 10.3132 10.9798L13.293 8L10.3132 5.02018C10.1179 4.82492 10.1179 4.50841 10.3132 4.31315Z" stroke="white" stroke-width="0.4" stroke-linecap="round" stroke-linejoin="round"/>
<path d="M14 7.5C14.2761 7.5 14.5 7.72386 14.5 8C14.5 8.27614 14.2761 8.5 14 8.5H6C5.72386 8.5 5.5 8.27614 5.5 8C5.5 7.72386 5.72386 7.5 6 7.5H14Z" stroke="white" stroke-width="0.4" stroke-linecap="round" stroke-linejoin="round"/>
<path d="M1.5 12.6667V3.33333C1.5 2.8471 1.69329 2.38093 2.03711 2.03711C2.38093 1.69329 2.8471 1.5 3.33333 1.5H6C6.27614 1.5 6.5 1.72386 6.5 2C6.5 2.27614 6.27614 2.5 6 2.5H3.33333C3.11232 2.5 2.90042 2.58786 2.74414 2.74414C2.58786 2.90042 2.5 3.11232 2.5 3.33333V12.6667C2.5 12.8877 2.58786 13.0996 2.74414 13.2559C2.90042 13.4121 3.11232 13.5 3.33333 13.5H6C6.27614 13.5 6.5 13.7239 6.5 14C6.5 14.2761 6.27614 14.5 6 14.5H3.33333C2.8471 14.5 2.38093 14.3067 2.03711 13.9629C1.69329 13.6191 1.5 13.1529 1.5 12.6667Z" stroke="white" stroke-width="0.4" stroke-linecap="round" stroke-linejoin="round"/>
</svg>
