<svg width="16" height="16" viewBox="0 0 16 16" fill="none" xmlns="http://www.w3.org/2000/svg">
<path d="M8.00005 1.5C9.81292 1.5 11.5428 2.21923 12.8399 3.46615L14.3536 4.97982C14.5488 5.17508 14.5488 5.49159 14.3536 5.68685C14.1583 5.88211 13.8418 5.88211 13.6465 5.68685L12.14 4.18034C11.0246 3.1116 9.54379 2.5 8.00005 2.5C6.9123 2.5 5.84915 2.82279 4.94471 3.42708C4.04025 4.03142 3.33495 4.8902 2.91867 5.89518C2.5024 6.90014 2.39333 8.00606 2.60551 9.07292C2.81773 10.1398 3.34153 11.1201 4.11072 11.8893C4.87991 12.6585 5.86023 13.1823 6.92713 13.3945C7.99399 13.6067 9.09991 13.4976 10.1049 13.0814C11.1098 12.6651 11.9686 11.9598 12.573 11.0553C13.1773 10.1509 13.5 9.08775 13.5 8C13.5 7.72386 13.7239 7.5 14 7.5C14.2762 7.5 14.5 7.72386 14.5 8C14.5 9.28558 14.1186 10.5424 13.4043 11.6113C12.6902 12.6801 11.6753 13.5133 10.4877 14.0052C9.29996 14.4972 7.99269 14.6258 6.73182 14.375C5.471 14.1242 4.31269 13.5054 3.40369 12.5964C2.49469 11.6874 1.87587 10.529 1.62505 9.26823C1.37424 8.00735 1.50287 6.70009 1.99484 5.51237C2.48678 4.3248 3.31994 3.30989 4.38872 2.5957C5.45764 1.88147 6.71447 1.5 8.00005 1.5Z" fill="white"/>
<path d="M13.5 2C13.5 1.72386 13.7239 1.5 14 1.5C14.2762 1.5 14.5 1.72386 14.5 2V5.33333C14.5 5.60948 14.2762 5.83333 14 5.83333H10.6667C10.3906 5.83333 10.1667 5.60948 10.1667 5.33333C10.1667 5.05719 10.3906 4.83333 10.6667 4.83333H13.5V2Z" fill="white"/>
<path d="M8.00005 1.5C9.81292 1.5 11.5428 2.21923 12.8399 3.46615L14.3536 4.97982C14.5488 5.17508 14.5488 5.49159 14.3536 5.68685C14.1583 5.88211 13.8418 5.88211 13.6465 5.68685L12.14 4.18034C11.0246 3.1116 9.54379 2.5 8.00005 2.5C6.9123 2.5 5.84915 2.82279 4.94471 3.42708C4.04025 4.03142 3.33495 4.8902 2.91867 5.89518C2.5024 6.90014 2.39333 8.00606 2.60551 9.07292C2.81773 10.1398 3.34153 11.1201 4.11072 11.8893C4.87991 12.6585 5.86023 13.1823 6.92713 13.3945C7.99399 13.6067 9.09991 13.4976 10.1049 13.0814C11.1098 12.6651 11.9686 11.9598 12.573 11.0553C13.1773 10.1509 13.5 9.08775 13.5 8C13.5 7.72386 13.7239 7.5 14 7.5C14.2762 7.5 14.5 7.72386 14.5 8C14.5 9.28558 14.1186 10.5424 13.4043 11.6113C12.6902 12.6801 11.6753 13.5133 10.4877 14.0052C9.29996 14.4972 7.99269 14.6258 6.73182 14.375C5.471 14.1242 4.31269 13.5054 3.40369 12.5964C2.49469 11.6874 1.87587 10.529 1.62505 9.26823C1.37424 8.00735 1.50287 6.70009 1.99484 5.51237C2.48678 4.3248 3.31994 3.30989 4.38872 2.5957C5.45764 1.88147 6.71447 1.5 8.00005 1.5Z" stroke="white" stroke-width="0.4" stroke-linecap="round" stroke-linejoin="round"/>
<path d="M13.5 2C13.5 1.72386 13.7239 1.5 14 1.5C14.2762 1.5 14.5 1.72386 14.5 2V5.33333C14.5 5.60948 14.2762 5.83333 14 5.83333H10.6667C10.3906 5.83333 10.1667 5.60948 10.1667 5.33333C10.1667 5.05719 10.3906 4.83333 10.6667 4.83333H13.5V2Z" stroke="white" stroke-width="0.4" stroke-linecap="round" stroke-linejoin="round"/>
</svg>
