<svg width="24" height="24" viewBox="0 0 24 24" fill="none" xmlns="http://www.w3.org/2000/svg">
<path d="M13.4697 4C13.4697 3.66848 13.3379 3.35063 13.1035 3.11621C12.8691 2.88188 12.5511 2.75 12.2197 2.75H11.7802C11.4488 2.75 11.1309 2.88188 10.8964 3.11621C10.662 3.35063 10.5302 3.66848 10.5302 4V4.18066C10.5297 4.66273 10.4023 5.13631 10.1611 5.55371C9.92009 5.97064 9.57306 6.31654 9.15621 6.55762L8.72652 6.80859L8.72457 6.80957C8.30659 7.05081 7.83217 7.17773 7.34957 7.17773C6.86698 7.17767 6.39251 7.05087 5.97457 6.80957L5.84664 6.74219C5.83934 6.73829 5.83232 6.73363 5.82515 6.72949C5.53842 6.56413 5.19767 6.51906 4.87789 6.60449C4.55812 6.69 4.28509 6.89918 4.1191 7.18555L3.89937 7.56543L3.8984 7.56445C3.73308 7.85122 3.68886 8.19291 3.77437 8.5127C3.84926 8.79246 4.01889 9.03637 4.25191 9.2041L4.35543 9.27148L4.39644 9.2959L4.54586 9.39551C4.94308 9.63416 5.27459 9.96905 5.50777 10.3701C5.74884 10.7849 5.87692 11.2556 5.87984 11.7354V12.2471L5.87496 12.4287C5.84875 12.85 5.72568 13.2605 5.51461 13.6279C5.27315 14.0481 4.9245 14.3974 4.50484 14.6396L4.50386 14.6387L4.36617 14.7227L4.35543 14.7295L4.35445 14.7285C4.06844 14.8945 3.85988 15.1679 3.77437 15.4873C3.68894 15.8068 3.73342 16.148 3.8984 16.4346L4.1191 16.8145C4.28509 17.1008 4.55812 17.31 4.87789 17.3955C5.19767 17.4809 5.53842 17.4359 5.82515 17.2705L5.84664 17.2578L5.97457 17.1904C6.39251 16.9491 6.86698 16.8223 7.34957 16.8223C7.83217 16.8223 8.30659 16.9492 8.72457 17.1904L8.72652 17.1914L9.15523 17.4404L9.30855 17.5361C9.65785 17.7697 9.95 18.0811 10.1611 18.4463C10.4023 18.8637 10.5297 19.3373 10.5302 19.8193V20C10.5302 20.3315 10.662 20.6494 10.8964 20.8838C11.1309 21.1181 11.4488 21.25 11.7802 21.25H12.2197C12.5511 21.25 12.8691 21.1181 13.1035 20.8838C13.3379 20.6494 13.4697 20.3315 13.4697 20V19.8193C13.4702 19.3373 13.5977 18.8637 13.8388 18.4463C14.0801 18.0288 14.4271 17.6815 14.8447 17.4404L15.2734 17.1914L15.2753 17.1904C15.6933 16.9492 16.1677 16.8223 16.6503 16.8223C17.1329 16.8223 17.6074 16.9491 18.0253 17.1904L18.1533 17.2578L18.1748 17.2705C18.4615 17.4359 18.8022 17.4809 19.122 17.3955C19.4418 17.31 19.7148 17.1008 19.8808 16.8145L20.0966 16.4316L20.1005 16.4248C20.2658 16.1381 20.311 15.7973 20.2255 15.4775C20.1406 15.16 19.9336 14.8889 19.6503 14.7227L19.5166 14.6514C19.5094 14.6475 19.5021 14.6437 19.4951 14.6396C19.0754 14.3974 18.7268 14.0481 18.4853 13.6279C18.244 13.2079 18.1182 12.7315 18.1201 12.2471V11.75C18.1187 11.2666 18.2445 10.7913 18.4853 10.3721C18.6966 10.0045 18.9897 9.69088 19.3408 9.45605L19.4951 9.36035L19.6337 9.27734L19.6445 9.27051C19.9307 9.10456 20.14 8.83226 20.2255 8.5127C20.3111 8.1928 20.266 7.85129 20.1005 7.56445L19.8808 7.18555C19.7148 6.89918 19.4418 6.69 19.122 6.60449C18.8022 6.51906 18.4615 6.56413 18.1748 6.72949C18.1676 6.73363 18.1606 6.73829 18.1533 6.74219L18.0244 6.80859C17.6064 7.04988 17.1329 7.17767 16.6503 7.17773C16.1677 7.17773 15.6933 7.05082 15.2753 6.80957L15.2734 6.80859L14.8427 6.55859C14.4262 6.31753 14.0797 5.97039 13.8388 5.55371C13.5977 5.13631 13.4702 4.66273 13.4697 4.18066V4ZM14.9697 4.17969L14.9804 4.34277C15.002 4.50464 15.0554 4.66142 15.1377 4.80371C15.22 4.94609 15.3293 5.07046 15.4589 5.16992L15.5947 5.26074L15.5966 5.26172L16.0253 5.51074L16.1718 5.58301C16.3229 5.64555 16.4858 5.67773 16.6503 5.67773C16.8696 5.67767 17.0854 5.62039 17.2753 5.51074L17.2968 5.49805L17.4472 5.41797C18.0737 5.06423 18.8141 4.97024 19.5097 5.15625C20.2134 5.34446 20.8136 5.80422 21.1787 6.43457L21.3994 6.81445C21.7633 7.44542 21.8619 8.19571 21.6738 8.89941C21.4866 9.59953 21.0306 10.1968 20.4052 10.5625L20.2558 10.6533L20.2451 10.6592C20.0543 10.7693 19.8958 10.9282 19.7861 11.1191C19.6763 11.3101 19.6192 11.5268 19.6201 11.7471V12.2529C19.6192 12.4732 19.6763 12.6899 19.7861 12.8809C19.8947 13.0699 20.0511 13.2269 20.2392 13.3369L20.373 13.4082L20.3955 13.4209C21.0257 13.7859 21.4855 14.3863 21.6738 15.0898C21.8614 15.7913 21.7634 16.5382 21.4023 17.168L21.1836 17.5586L21.1787 17.5664L21.1777 17.5654C20.8126 18.1957 20.2134 18.6556 19.5097 18.8438C18.8139 19.0298 18.0737 18.935 17.4472 18.5811L17.2968 18.502C17.2895 18.498 17.2826 18.4934 17.2753 18.4893C17.0854 18.3796 16.8696 18.3223 16.6503 18.3223C16.4311 18.3223 16.2153 18.3797 16.0253 18.4893L15.5966 18.7383L15.5947 18.7393C15.4049 18.8488 15.2473 19.0066 15.1377 19.1963C15.028 19.3859 14.97 19.6013 14.9697 19.8203V20C14.9697 20.7293 14.6797 21.4286 14.164 21.9443C13.6483 22.46 12.949 22.75 12.2197 22.75H11.7802C11.051 22.75 10.3516 22.46 9.8359 21.9443C9.32017 21.4286 9.03023 20.7293 9.03023 20V19.8203C9.02993 19.6013 8.97189 19.3859 8.86226 19.1963C8.75258 19.0066 8.59499 18.8488 8.40523 18.7393L8.40328 18.7383L7.97457 18.4893C7.78464 18.3797 7.56883 18.3223 7.34957 18.3223C7.13028 18.3223 6.91448 18.3796 6.72457 18.4893C6.71736 18.4934 6.71042 18.498 6.70308 18.502L6.55269 18.582L6.55172 18.5811C5.92536 18.9346 5.18571 19.0297 4.49019 18.8438C3.78648 18.6555 3.18636 18.1958 2.82125 17.5654L2.60054 17.1855C2.23658 16.5546 2.13802 15.8043 2.32613 15.1006C2.51331 14.4006 2.96852 13.8022 3.59371 13.4365L3.7441 13.3467L3.75484 13.3408C3.94559 13.2307 4.10407 13.0718 4.21383 12.8809C4.32358 12.6899 4.38072 12.4732 4.37984 12.2529V11.7441C4.37846 11.5262 4.32037 11.3124 4.2109 11.124C4.10127 10.9355 3.94373 10.779 3.75484 10.6699C3.74089 10.6619 3.72723 10.6525 3.71383 10.6436L3.56441 10.5439C2.955 10.1768 2.51024 9.58792 2.32613 8.89941C2.13802 8.19571 2.23658 7.4464 2.60054 6.81543L2.82125 6.43457C3.18636 5.80423 3.78648 5.34446 4.49019 5.15625C5.18555 4.97031 5.92544 5.06458 6.55172 5.41797L6.70308 5.49805L6.72457 5.51074C6.91448 5.62039 7.13028 5.67767 7.34957 5.67773C7.56883 5.67773 7.78464 5.6203 7.97457 5.51074L8.40328 5.26172L8.40523 5.26074C8.59499 5.15116 8.75258 4.99341 8.86226 4.80371C8.94451 4.66142 8.99797 4.50464 9.01949 4.34277L9.03023 4.17969V4C9.03023 3.27065 9.32017 2.57139 9.8359 2.05566C10.3516 1.54002 11.051 1.25 11.7802 1.25H12.2197C12.949 1.25 13.6483 1.54002 14.164 2.05566C14.6797 2.57139 14.9697 3.27065 14.9697 4V4.17969Z" fill="#525252"/>
<path d="M14.25 12C14.25 10.7574 13.2426 9.75 12 9.75C10.7573 9.75 9.74996 10.7574 9.74996 12C9.74996 13.2426 10.7573 14.25 12 14.25C13.2426 14.25 14.25 13.2426 14.25 12ZM15.75 12C15.75 14.0711 14.071 15.75 12 15.75C9.92889 15.75 8.24996 14.0711 8.24996 12C8.24996 9.92893 9.92889 8.25 12 8.25C14.071 8.25 15.75 9.92893 15.75 12Z" fill="#525252"/>
</svg>
