<svg width="16" height="16" viewBox="0 0 16 16" fill="none" xmlns="http://www.w3.org/2000/svg">
<path d="M12.8333 3.9997C12.8333 3.95561 12.8157 3.91305 12.7845 3.88186C12.7533 3.8507 12.7108 3.83303 12.6667 3.83303C11.1734 3.83303 9.40342 2.96621 8.18164 1.89944C8.13096 1.85622 8.06661 1.83303 8 1.83303C7.93339 1.83303 7.86903 1.85687 7.81836 1.90009C6.6037 2.95969 4.82684 3.83303 3.33333 3.83303C3.2892 3.83303 3.24673 3.8507 3.21549 3.88186C3.18431 3.91305 3.16674 3.95561 3.16666 3.9997V8.66637C3.16666 10.2009 3.69782 11.3262 4.53841 12.1872C5.28593 12.9528 6.29568 13.5264 7.44336 13.9711L7.94336 14.154L7.95442 14.1579C7.98982 14.1711 8.02859 14.1716 8.06445 14.1599C9.41433 13.6891 10.609 13.0639 11.4622 12.1885C12.3023 11.3265 12.8333 10.2009 12.8333 8.66637V3.9997ZM13.8333 8.66637C13.8333 10.4651 13.1976 11.8401 12.1777 12.8864C11.1715 13.9187 9.81359 14.6094 8.39127 15.1052L8.38737 15.1071C8.13688 15.192 7.86506 15.1884 7.61653 15.0987C6.19053 14.6062 4.83018 13.9174 3.82291 12.8858C2.80204 11.8401 2.16666 10.465 2.16666 8.66637V3.9997C2.16674 3.69039 2.28974 3.39355 2.50846 3.17483C2.72724 2.95613 3.02398 2.83303 3.33333 2.83303C4.50477 2.83303 6.05883 2.10897 7.16406 1.14358L7.16862 1.13968C7.40037 0.941726 7.69521 0.833035 8 0.833035C8.26673 0.833035 8.52566 0.916534 8.74153 1.07001L8.83138 1.13968L8.83594 1.14358C9.94735 2.11524 11.4948 2.83303 12.6667 2.83303C12.976 2.83303 13.2728 2.95613 13.4915 3.17483C13.7103 3.39355 13.8333 3.69039 13.8333 3.9997V8.66637Z" fill="#FEFCE8"/>
<path d="M6.69101 4.52072C7.19796 4.22622 7.79224 4.11872 8.37005 4.21799C8.94785 4.31727 9.47224 4.61689 9.85182 5.06369C10.2314 5.51049 10.4423 6.07641 10.4469 6.66265V6.66655C10.4469 7.59854 9.75439 8.22908 9.22422 8.58257C8.944 8.76938 8.66718 8.9076 8.4625 8.99859C8.35943 9.04439 8.27253 9.07914 8.21054 9.10275C8.17955 9.11456 8.15425 9.12372 8.13633 9.1301C8.1275 9.13323 8.12013 9.13544 8.11484 9.13726C8.11223 9.13816 8.11002 9.13929 8.10833 9.13986C8.10759 9.14011 8.10693 9.14033 8.10638 9.14051L8.10508 9.14116C7.8431 9.22849 7.55959 9.08673 7.47226 8.82476C7.38503 8.56298 7.52642 8.28013 7.78802 8.1926L7.80169 8.18804C7.81304 8.184 7.8308 8.17686 7.85442 8.16786C7.90181 8.1498 7.97181 8.12205 8.05625 8.08452C8.22651 8.00884 8.44994 7.89693 8.66953 7.75054C9.13774 7.43835 9.44494 7.07017 9.44687 6.67046L9.43971 6.5396C9.41064 6.23517 9.28944 5.94548 9.0901 5.71083C8.86236 5.44275 8.54746 5.26323 8.20078 5.20366C7.85408 5.14409 7.49715 5.2086 7.19297 5.3853C6.88895 5.562 6.65668 5.83991 6.53672 6.17046C6.44253 6.43004 6.15567 6.56413 5.89609 6.46994C5.63654 6.37573 5.50243 6.08888 5.59661 5.82931C5.7966 5.27824 6.1841 4.81521 6.69101 4.52072Z" fill="#FEFCE8"/>
<path d="M8.00651 10.8333C8.28265 10.8333 8.50651 11.0572 8.50651 11.3333C8.50651 11.6095 8.28265 11.8333 8.00651 11.8333H8C7.72386 11.8333 7.5 11.6095 7.5 11.3333C7.5 11.0572 7.72386 10.8333 8 10.8333H8.00651Z" fill="#FEFCE8"/>
<path d="M12.8333 3.9997C12.8333 3.95561 12.8157 3.91305 12.7845 3.88186C12.7533 3.8507 12.7108 3.83303 12.6667 3.83303C11.1734 3.83303 9.40342 2.96621 8.18164 1.89944C8.13096 1.85622 8.06661 1.83303 8 1.83303C7.93339 1.83303 7.86903 1.85687 7.81836 1.90009C6.6037 2.95969 4.82684 3.83303 3.33333 3.83303C3.2892 3.83303 3.24673 3.8507 3.21549 3.88186C3.18431 3.91305 3.16674 3.95561 3.16666 3.9997V8.66637C3.16666 10.2009 3.69782 11.3262 4.53841 12.1872C5.28593 12.9528 6.29568 13.5264 7.44336 13.9711L7.94336 14.154L7.95442 14.1579C7.98982 14.1711 8.02859 14.1716 8.06445 14.1599C9.41433 13.6891 10.609 13.0639 11.4622 12.1885C12.3023 11.3265 12.8333 10.2009 12.8333 8.66637V3.9997ZM13.8333 8.66637C13.8333 10.4651 13.1976 11.8401 12.1777 12.8864C11.1715 13.9187 9.81359 14.6094 8.39127 15.1052L8.38737 15.1071C8.13688 15.192 7.86506 15.1884 7.61653 15.0987C6.19053 14.6062 4.83018 13.9174 3.82291 12.8858C2.80204 11.8401 2.16666 10.465 2.16666 8.66637V3.9997C2.16674 3.69039 2.28974 3.39355 2.50846 3.17483C2.72724 2.95613 3.02398 2.83303 3.33333 2.83303C4.50477 2.83303 6.05883 2.10897 7.16406 1.14358L7.16862 1.13968C7.40037 0.941726 7.69521 0.833035 8 0.833035C8.26673 0.833035 8.52566 0.916534 8.74153 1.07001L8.83138 1.13968L8.83594 1.14358C9.94735 2.11524 11.4948 2.83303 12.6667 2.83303C12.976 2.83303 13.2728 2.95613 13.4915 3.17483C13.7103 3.39355 13.8333 3.69039 13.8333 3.9997V8.66637Z" stroke="white" stroke-width="0.4" stroke-linecap="round" stroke-linejoin="round"/>
<path d="M6.69101 4.52072C7.19796 4.22622 7.79224 4.11872 8.37005 4.21799C8.94785 4.31727 9.47224 4.61689 9.85182 5.06369C10.2314 5.51049 10.4423 6.07641 10.4469 6.66265V6.66655C10.4469 7.59854 9.75439 8.22908 9.22422 8.58257C8.944 8.76938 8.66718 8.9076 8.4625 8.99859C8.35943 9.04439 8.27253 9.07914 8.21054 9.10275C8.17955 9.11456 8.15425 9.12372 8.13633 9.1301C8.1275 9.13323 8.12013 9.13544 8.11484 9.13726C8.11223 9.13816 8.11002 9.13929 8.10833 9.13986C8.10759 9.14011 8.10693 9.14033 8.10638 9.14051L8.10508 9.14116C7.8431 9.22849 7.55959 9.08673 7.47226 8.82476C7.38503 8.56298 7.52642 8.28013 7.78802 8.1926L7.80169 8.18804C7.81304 8.184 7.8308 8.17686 7.85442 8.16786C7.90181 8.1498 7.97181 8.12205 8.05625 8.08452C8.22651 8.00884 8.44994 7.89693 8.66953 7.75054C9.13774 7.43835 9.44494 7.07017 9.44687 6.67046L9.43971 6.5396C9.41064 6.23517 9.28944 5.94548 9.0901 5.71083C8.86236 5.44275 8.54746 5.26323 8.20078 5.20366C7.85408 5.14409 7.49715 5.2086 7.19297 5.3853C6.88895 5.562 6.65668 5.83991 6.53672 6.17046C6.44253 6.43004 6.15567 6.56413 5.89609 6.46994C5.63654 6.37573 5.50243 6.08888 5.59661 5.82931C5.7966 5.27824 6.1841 4.81521 6.69101 4.52072Z" stroke="white" stroke-width="0.4" stroke-linecap="round" stroke-linejoin="round"/>
<path d="M8.00651 10.8333C8.28265 10.8333 8.50651 11.0572 8.50651 11.3333C8.50651 11.6095 8.28265 11.8333 8.00651 11.8333H8C7.72386 11.8333 7.5 11.6095 7.5 11.3333C7.5 11.0572 7.72386 10.8333 8 10.8333H8.00651Z" stroke="white" stroke-width="0.4" stroke-linecap="round" stroke-linejoin="round"/>
</svg>
